<svg xmlns="http://www.w3.org/2000/svg" width="26.954" height="27.003" viewBox="0 0 26.954 27.003"><defs><style>.a{fill:none;stroke:#48c5b3;stroke-linecap:round;stroke-linejoin:round;stroke-width:3px;}</style></defs><path class="a" d="M27.12,20.968v3.613a2.409,2.409,0,0,1-2.625,2.409,23.834,23.834,0,0,1-10.393-3.7,23.484,23.484,0,0,1-7.226-7.226,23.834,23.834,0,0,1-3.7-10.441A2.409,2.409,0,0,1,5.574,3H9.187A2.409,2.409,0,0,1,11.6,5.071a15.463,15.463,0,0,0,.843,3.384A2.409,2.409,0,0,1,11.9,11l-1.529,1.529a19.269,19.269,0,0,0,7.226,7.226l1.529-1.529a2.409,2.409,0,0,1,2.541-.542,15.464,15.464,0,0,0,3.384.843,2.409,2.409,0,0,1,2.071,2.445Z" transform="translate(-1.667 -1.5)"/></svg>